<svg width="45" height="46" viewBox="0 0 45 46" fill="none" xmlns="http://www.w3.org/2000/svg">
<rect width="45" height="46" rx="22.5" fill="white"/>
<g filter="url(#filter0_d_201_24)">
<mask id="path-2-outside-1_201_24" maskUnits="userSpaceOnUse" x="16" y="16" width="13" height="14" fill="black">
<rect fill="white" x="16" y="16" width="13" height="14"/>
<path d="M22.3484 28.096C21.4631 28.096 20.7004 27.8507 20.0604 27.36C19.4311 26.8693 18.9404 26.1813 18.5884 25.296C18.2471 24.4107 18.0551 23.3867 18.0124 22.224C17.9911 21.328 17.9804 20.72 17.9804 20.4L17.9964 19.168C18.0071 18.9013 18.0124 18.496 18.0124 17.952C18.0124 17.7813 18.0764 17.616 18.2044 17.456C18.3431 17.2853 18.5564 17.2 18.8444 17.2C19.1218 17.2 19.3191 17.2853 19.4364 17.456C19.5538 17.616 19.6124 17.7867 19.6124 17.968L19.5964 19.12C19.5858 19.344 19.5804 19.6853 19.5804 20.144C19.5804 20.4853 19.5911 21.104 19.6124 22C19.6551 23.3547 19.8844 24.464 20.3004 25.328C20.7271 26.192 21.4204 26.624 22.3804 26.624C23.1271 26.624 23.7618 26.3893 24.2844 25.92C24.8071 25.44 25.1271 24.6827 25.2444 23.648C25.3404 22.7307 25.3884 21.7013 25.3884 20.56L25.3724 18C25.3724 17.808 25.4311 17.6267 25.5484 17.456C25.6658 17.2853 25.8738 17.2 26.1724 17.2C26.4711 17.2 26.6738 17.2853 26.7804 17.456C26.8978 17.616 26.9564 17.7867 26.9564 17.968L26.9724 18.416C27.0044 19.504 27.0204 20.2453 27.0204 20.64C27.0204 21.7387 26.9564 22.784 26.8284 23.776C26.6471 25.1307 26.1938 26.192 25.4684 26.96C24.7431 27.7173 23.7031 28.096 22.3484 28.096Z"/>
</mask>
<path d="M22.3484 28.096C21.4631 28.096 20.7004 27.8507 20.0604 27.36C19.4311 26.8693 18.9404 26.1813 18.5884 25.296C18.2471 24.4107 18.0551 23.3867 18.0124 22.224C17.9911 21.328 17.9804 20.72 17.9804 20.4L17.9964 19.168C18.0071 18.9013 18.0124 18.496 18.0124 17.952C18.0124 17.7813 18.0764 17.616 18.2044 17.456C18.3431 17.2853 18.5564 17.2 18.8444 17.2C19.1218 17.2 19.3191 17.2853 19.4364 17.456C19.5538 17.616 19.6124 17.7867 19.6124 17.968L19.5964 19.12C19.5858 19.344 19.5804 19.6853 19.5804 20.144C19.5804 20.4853 19.5911 21.104 19.6124 22C19.6551 23.3547 19.8844 24.464 20.3004 25.328C20.7271 26.192 21.4204 26.624 22.3804 26.624C23.1271 26.624 23.7618 26.3893 24.2844 25.92C24.8071 25.44 25.1271 24.6827 25.2444 23.648C25.3404 22.7307 25.3884 21.7013 25.3884 20.56L25.3724 18C25.3724 17.808 25.4311 17.6267 25.5484 17.456C25.6658 17.2853 25.8738 17.2 26.1724 17.2C26.4711 17.2 26.6738 17.2853 26.7804 17.456C26.8978 17.616 26.9564 17.7867 26.9564 17.968L26.9724 18.416C27.0044 19.504 27.0204 20.2453 27.0204 20.64C27.0204 21.7387 26.9564 22.784 26.8284 23.776C26.6471 25.1307 26.1938 26.192 25.4684 26.96C24.7431 27.7173 23.7031 28.096 22.3484 28.096Z" fill="black"/>
<path d="M20.0604 27.36L19.4456 28.1487L19.452 28.1536L20.0604 27.36ZM18.5884 25.296L17.6553 25.6558L17.6592 25.6655L18.5884 25.296ZM18.0124 22.224L17.0126 22.2478L17.0131 22.2607L18.0124 22.224ZM17.9804 20.4L16.9804 20.387V20.4H17.9804ZM17.9964 19.168L16.9972 19.128L16.9967 19.1415L16.9965 19.155L17.9964 19.168ZM18.2044 17.456L17.4283 16.8254L17.4236 16.8313L18.2044 17.456ZM19.4364 17.456L18.6124 18.0225L18.621 18.0351L18.63 18.0474L19.4364 17.456ZM19.6124 17.968L20.6124 17.9819V17.968H19.6124ZM19.5964 19.12L20.5953 19.1676L20.5961 19.1507L20.5963 19.1339L19.5964 19.12ZM19.6124 22L18.6127 22.0238L18.6129 22.0315L19.6124 22ZM20.3004 25.328L19.3994 25.7618L19.4038 25.7708L20.3004 25.328ZM24.2844 25.92L24.9526 26.6641L24.9608 26.6565L24.2844 25.92ZM25.2444 23.648L26.2381 23.7607L26.239 23.7521L25.2444 23.648ZM25.3884 20.56L26.3885 20.56L26.3884 20.5537L25.3884 20.56ZM25.3724 18L24.3724 18L24.3725 18.0063L25.3724 18ZM25.5484 17.456L26.3725 18.0225L26.3725 18.0225L25.5484 17.456ZM26.7804 17.456L25.9324 17.986L25.9521 18.0175L25.974 18.0474L26.7804 17.456ZM26.9564 17.968H25.9564V17.9859L25.9571 18.0037L26.9564 17.968ZM26.9724 18.416L27.972 18.3866L27.9718 18.3803L26.9724 18.416ZM26.8284 23.776L27.8196 23.9087L27.8202 23.904L26.8284 23.776ZM25.4684 26.96L26.1907 27.6517L26.1955 27.6466L25.4684 26.96ZM22.3484 27.096C21.6603 27.096 21.117 26.91 20.6689 26.5664L19.452 28.1536C20.2839 28.7914 21.2659 29.096 22.3484 29.096V27.096ZM20.6753 26.5714C20.2111 26.2095 19.8168 25.6788 19.5177 24.9265L17.6592 25.6655C18.0641 26.6838 18.6511 27.5292 19.4456 28.1486L20.6753 26.5714ZM19.5215 24.9363C19.2278 24.1745 19.0513 23.2635 19.0118 22.1873L17.0131 22.2607C17.059 23.5098 17.2664 24.6468 17.6554 25.6557L19.5215 24.9363ZM19.0122 22.2002C18.9908 21.3028 18.9804 20.7063 18.9804 20.4H16.9804C16.9804 20.7337 16.9914 21.3532 17.0127 22.2478L19.0122 22.2002ZM18.9804 20.413L18.9964 19.181L16.9965 19.155L16.9805 20.387L18.9804 20.413ZM18.9956 19.208C19.0071 18.9204 19.0124 18.4987 19.0124 17.952H17.0124C17.0124 18.4933 17.0071 18.8822 16.9972 19.128L18.9956 19.208ZM19.0124 17.952C19.0124 17.9949 19.0038 18.0331 18.993 18.061C18.983 18.0869 18.9753 18.0932 18.9853 18.0807L17.4236 16.8313C17.1832 17.1318 17.0124 17.5112 17.0124 17.952H19.0124ZM18.9806 18.0866C18.9611 18.1105 18.9374 18.1332 18.9106 18.1527C18.884 18.1721 18.8592 18.1847 18.8398 18.1925C18.8026 18.2074 18.7966 18.2 18.8444 18.2V16.2C18.3557 16.2 17.8122 16.3529 17.4283 16.8254L18.9806 18.0866ZM18.8444 18.2C18.8845 18.2 18.8608 18.2066 18.8035 18.1819C18.7365 18.1529 18.6644 18.0982 18.6124 18.0225L20.2605 16.8895C19.8964 16.3599 19.3282 16.2 18.8444 16.2V18.2ZM18.63 18.0474C18.635 18.0541 18.6292 18.048 18.6228 18.0291C18.6159 18.0093 18.6124 17.9874 18.6124 17.968H20.6124C20.6124 17.5538 20.4735 17.1791 20.2428 16.8646L18.63 18.0474ZM18.6125 17.9541L18.5965 19.1061L20.5963 19.1339L20.6123 17.9819L18.6125 17.9541ZM18.5976 19.0724C18.5857 19.3213 18.5804 19.6822 18.5804 20.144H20.5804C20.5804 19.6884 20.5858 19.3667 20.5953 19.1676L18.5976 19.0724ZM18.5804 20.144C18.5804 20.4988 18.5914 21.1286 18.6127 22.0238L20.6122 21.9762C20.5908 21.0794 20.5804 20.4719 20.5804 20.144H18.5804ZM18.6129 22.0315C18.6583 23.4721 18.9033 24.7314 19.3994 25.7618L21.2014 24.8942C20.8656 24.1966 20.6519 23.2373 20.6119 21.9685L18.6129 22.0315ZM19.4038 25.7708C19.6846 26.3393 20.0805 26.8178 20.6116 27.1487C21.143 27.4798 21.7467 27.624 22.3804 27.624V25.624C22.0542 25.624 21.8312 25.5522 21.6693 25.4513C21.5071 25.3502 21.343 25.1807 21.1971 24.8852L19.4038 25.7708ZM22.3804 27.624C23.3568 27.624 24.2342 27.3092 24.9526 26.664L23.6163 25.176C23.2894 25.4695 22.8974 25.624 22.3804 25.624V27.624ZM24.9608 26.6565C25.7279 25.9521 26.106 24.9255 26.2381 23.7607L24.2508 23.5353C24.1482 24.4399 23.8863 24.9279 23.608 25.1835L24.9608 26.6565ZM26.239 23.7521C26.3394 22.7932 26.3884 21.7283 26.3884 20.56H24.3884C24.3884 21.6744 24.3415 22.6681 24.2499 23.5439L26.239 23.7521ZM26.3884 20.5537L26.3724 17.9937L24.3725 18.0063L24.3885 20.5662L26.3884 20.5537ZM26.3724 18C26.3724 18.0031 26.3722 18.0077 26.3713 18.0132C26.3704 18.0188 26.3692 18.0238 26.3679 18.0278C26.3666 18.0318 26.3656 18.0337 26.3659 18.0332C26.3661 18.0327 26.368 18.0291 26.3725 18.0225L24.7244 16.8895C24.5019 17.2131 24.3724 17.5896 24.3724 18H26.3724ZM26.3725 18.0225C26.3447 18.0629 26.3104 18.0995 26.2718 18.1299C26.2337 18.1598 26.1983 18.1784 26.172 18.1892C26.1231 18.2092 26.1128 18.2 26.1724 18.2V16.2C25.7002 16.2 25.1019 16.3404 24.7244 16.8895L26.3725 18.0225ZM26.1724 18.2C26.2334 18.2 26.2174 18.2096 26.1604 18.1856C26.1295 18.1726 26.0883 18.1504 26.0449 18.1144C26.0008 18.0779 25.9624 18.034 25.9324 17.986L27.6284 16.926C27.2607 16.3376 26.6363 16.2 26.1724 16.2V18.2ZM25.974 18.0474C25.979 18.0541 25.9732 18.048 25.9668 18.0291C25.9599 18.0093 25.9564 17.9874 25.9564 17.968H27.9564C27.9564 17.5538 27.8175 17.1791 27.5868 16.8646L25.974 18.0474ZM25.9571 18.0037L25.9731 18.4517L27.9718 18.3803L27.9558 17.9323L25.9571 18.0037ZM25.9729 18.4454C26.0049 19.5349 26.0204 20.2622 26.0204 20.64H28.0204C28.0204 20.2285 28.004 19.4731 27.972 18.3866L25.9729 18.4454ZM26.0204 20.64C26.0204 21.7 25.9587 22.7024 25.8367 23.648L27.8202 23.904C27.9542 22.8656 28.0204 21.7773 28.0204 20.64H26.0204ZM25.8373 23.6433C25.6756 24.8512 25.2857 25.6971 24.7414 26.2734L26.1955 27.6466C27.1019 26.6869 27.6186 25.4102 27.8196 23.9087L25.8373 23.6433ZM24.7462 26.2683C24.2605 26.7755 23.5141 27.096 22.3484 27.096V29.096C23.8921 29.096 25.2257 28.6592 26.1906 27.6517L24.7462 26.2683Z" fill="black" mask="url(#path-2-outside-1_201_24)"/>
</g>
<defs>
<filter id="filter0_d_201_24" x="13.9804" y="17.2" width="17.04" height="18.896" filterUnits="userSpaceOnUse" color-interpolation-filters="sRGB">
<feFlood flood-opacity="0" result="BackgroundImageFix"/>
<feColorMatrix in="SourceAlpha" type="matrix" values="0 0 0 0 0 0 0 0 0 0 0 0 0 0 0 0 0 0 127 0" result="hardAlpha"/>
<feOffset dy="4"/>
<feGaussianBlur stdDeviation="2"/>
<feComposite in2="hardAlpha" operator="out"/>
<feColorMatrix type="matrix" values="0 0 0 0 0 0 0 0 0 0 0 0 0 0 0 0 0 0 0.25 0"/>
<feBlend mode="normal" in2="BackgroundImageFix" result="effect1_dropShadow_201_24"/>
<feBlend mode="normal" in="SourceGraphic" in2="effect1_dropShadow_201_24" result="shape"/>
</filter>
</defs>
</svg>
