<?xml version="1.0" encoding="UTF-8"?>
<svg id="a" data-name="Layer 1" xmlns="http://www.w3.org/2000/svg" viewBox="0 0 1024 1024">
  <defs>
    <style>
      .b {
        fill: #fff;
      }
    </style>
  </defs>
  <path class="b" d="M1024,0v1024H0V0h1024ZM509.77,147.17c-4.82.62-7.55,4.68-7.77,9.33-2.37,134.6-1.54,271.53-21.17,404.83-14.55,98.86-43.9,210.89-128.52,272.48-9.45,6.88-23.12,13.12-31.26,19.74-11.84,9.64,7.21,11.99,14.12,13.76,65.89,16.87,167.61,17.31,232.59-3.05,51.97-16.29,121.2-55.19,134.56-112.44,17.16-73.54-51.95-93.02-98.64-126.01-69.32-48.98-72.62-176.14-76.69-253.31-3.01-57.13-4.56-114.67-6.03-171.97-.37-14.5.84-29.66-.93-44.07-.66-5.35-4.65-10.02-10.26-9.3Z"/>
  <path d="M509.77,147.17c5.61-.72,9.6,3.95,10.26,9.3,1.78,14.4.56,29.56.93,44.07,1.47,57.3,3.02,114.84,6.03,171.97,4.07,77.17,7.38,204.32,76.69,253.31,46.69,32.99,115.8,52.47,98.64,126.01-13.36,57.25-82.59,96.16-134.56,112.44-64.98,20.36-166.69,19.92-232.59,3.05-6.91-1.77-25.96-4.12-14.12-13.76,8.14-6.63,21.81-12.87,31.26-19.74,84.62-61.59,113.96-173.62,128.52-272.48,19.63-133.3,18.79-270.23,21.17-404.83.22-4.64,2.95-8.71,7.77-9.33ZM658.79,695.29c-27.63,2.1-77.09,39.31-97.81,58.19-6.67,6.07-37.91,36.73-38.93,43.07-1.18,7.33-.95,33.21-.07,40.96.7,6.16,2.89,5.77,8.24,5.2,47.6-5.07,135.17-49.89,153.26-96.74,8.08-20.91,3.57-52.83-24.69-50.69Z"/>
  <path class="b" d="M658.79,695.29c28.26-2.15,32.76,29.78,24.69,50.69-18.09,46.85-105.66,91.67-153.26,96.74-5.35.57-7.54.96-8.24-5.2-.88-7.75-1.11-33.63.07-40.96,1.02-6.34,32.26-36.99,38.93-43.07,20.72-18.88,70.18-56.09,97.81-58.19Z"/>
</svg>