<?xml version="1.0" encoding="UTF-8"?>
<svg id="Layer_1" data-name="Layer 1" xmlns="http://www.w3.org/2000/svg" viewBox="0 0 422 422">
  <defs>
    <style>
      .cls-1 {
        fill: none;
        stroke: #000;
        stroke-miterlimit: 10;
        stroke-width: 22px;
      }
    </style>
  </defs>
  <path d="M226.694173585144199,259.843763851644326c3.690434253732747-5.658828937579528,1.343122422999841-11.275984069601691-1.561196747534268-19.323033040243899-2.400336462168525-5.978816662949612-5.016691499739864-12.305771923580323-7.546066790859186-18.441793626891013-1.666510786460094-3.991846547321984-3.350353012816413-7.887620260245967-4.980096153639352-11.17219770819429-4.900160683948343-10.104614759837204-9.143901017700955-13.422405466086275-14.018369876874203-4.47471947034137-14.532986434465784,29.397370122014763-35.770130737118961,95.569869909424597-50.593999225639891,118.163931301345656-3.380911791006838,5.51541437189735-8.151380946551399,8.35376986929441-15.104396532557075,8.854194456584082-8.078028414404798.523571845864353-16.883205936454942-.316289601028984-22.679214681361373-4.354449160051445-3.111203724321967-2.332961021753363-4.482535089276098-5.813831923040198-5.779684849567275-9.431908882319476-12.110849807510021-35.122805441304081-44.467090635922432-125.601024512352524-59.560985619324128-170.19183087100464-.044235670480703-.130682253902705-.084791066339676-.262603653787664-.120836962137219-.395599449315341-.841202825069558-3.103721975548979-1.155773311784287-5.819414499355844-.530857892929816-8.021957626213407,2.9439772870046-9.144342536754266,19.553134087693252-8.865812856090997,28.503656215975752-6.510210034530246,7.213992973569475,1.740520260304038,11.598034771111088,7.707337429041218,13.886143514644573,14.2064038742501,2.660292913142257,7.007329580157602,5.753693272560668,15.991093370230374,9.280127055751109,25.976912635656845,6.794007323296682,19.377900851992308,14.397125335490273,41.45413366559842,21.385507958976632,61.566425822498786,3.439144320753257,8.312419534737273,8.431606715049384,31.114124056053697,15.210057238137779,23.472662198995749,3.965458961452896-4.19627978151766,10.058774835650183-19.600792348988762,13.915821012637025-28.273968822390088,9.861807840973597-23.05303972171896,21.33108430908851-52.166915814606909,31.091149208446041-74.933756613339938,4.19829078033581-9.664781669598597,7.19089529865505-16.811431580425051,15.539597593774488-20.929881132553419,12.893353281401687-6.207201875038663,28.749792923719724-.640735616603706,35.325965480838022,12.151026253426608,15.522635792252004,32.906605272837623,34.573961214376141,83.310679399568471,45.580150652616794,108.074593533145162,2.041751074949389,4.639532320064973,5.060419956028454,11.503173219114615,9.010698712991143,4.221120817777773,4.661626715344937-8.89216125427447,9.954833944696475-25.780685871730384,14.072988476385945-36.907666282100763,7.634594804759217-21.532884373271372,15.666088785117608-44.878162955810694,23.148454203238543-65.954306653382446,1.983548668938965-5.39756383452368,4.239732783511499-10.933252100550817,8.08031022797968-15.287112034817255,6.777079993747975-8.223586620682909,21.095485549087243-10.309870672792385,30.430388474856954-8.955175211889582,8.116041352547654.980486191250748,9.58967679286161,4.988596489491101,7.125132844893415,12.487054006362087-12.316306366383287,38.608415132528535-46.465686120614009,135.336915938421953-62.075697102333834,177.761624884411503-.097632397629241.265344211349657-.209910072887396.522849002734802-.344177759013292.772899097057234-1.605997812024725,2.990890183376905-3.675314958011768,5.214798857436108-6.790998657181262,6.734781687831855-9.145452095840483,4.004460899785045-22.335303939802543,3.700688380129577-30.379236132334881-2.130951798295428-6.426920723294643-4.865461482055252-9.458486748033465-12.674155764625539-15.461698689983677-17.994629659735438-5.220987627112663-5.079968529282269-12.833069225072904-7.741370268951869-20.246375268872725-8.503012750048583-18.760793609491884-1.94149231139636-42.114292114521049,2.064281702734661-30.218004335392834-24.152687657255228,6.945357966954361-14.597102925730724,18.174538565280272-9.332951655134821,26.325753306717161-17.996593662839587l.079991098675237-.106188421590559Z"/>
  <circle class="cls-1" cx="211" cy="211" r="200"/>
</svg>